<mxfile host="app.diagrams.net" modified="2024-04-21T19:39:33.404Z" agent="Mozilla/5.0 (Windows NT 10.0; Win64; x64; rv:124.0) Gecko/20100101 Firefox/124.0" etag="5BrqXbc9OeKrVYc3YFNR" version="24.2.7" type="device" pages="2">
  <diagram name="Diagrama de estados" id="2YS5H9ZCi3lF4nUnDpEQ">
    <mxGraphModel dx="2613" dy="753" grid="1" gridSize="10" guides="1" tooltips="1" connect="1" arrows="1" fold="1" page="1" pageScale="1" pageWidth="1169" pageHeight="827" math="0" shadow="0">
      <root>
        <mxCell id="0" />
        <mxCell id="1" parent="0" />
        <mxCell id="ky3cwqDqhnrRtxj8B09a-54" value="CONTINUE" style="edgeStyle=none;rounded=0;orthogonalLoop=1;jettySize=auto;html=1;fontSize=12;" parent="1" source="ky3cwqDqhnrRtxj8B09a-55" target="ky3cwqDqhnrRtxj8B09a-57" edge="1">
          <mxGeometry relative="1" as="geometry" />
        </mxCell>
        <mxCell id="ky3cwqDqhnrRtxj8B09a-55" value="SETUP" style="ellipse;whiteSpace=wrap;html=1;aspect=fixed;fontSize=12;" parent="1" vertex="1">
          <mxGeometry x="-260" y="729.9999999999999" width="100" height="100" as="geometry" />
        </mxCell>
        <mxCell id="ky3cwqDqhnrRtxj8B09a-78" value="CONTINUE" style="edgeStyle=orthogonalEdgeStyle;rounded=0;orthogonalLoop=1;jettySize=auto;html=1;fontSize=12;" parent="1" source="ky3cwqDqhnrRtxj8B09a-57" target="ky3cwqDqhnrRtxj8B09a-77" edge="1">
          <mxGeometry relative="1" as="geometry" />
        </mxCell>
        <mxCell id="ky3cwqDqhnrRtxj8B09a-57" value="ON_Q1_Q3_AXIS" style="ellipse;whiteSpace=wrap;html=1;aspect=fixed;fontSize=12;" parent="1" vertex="1">
          <mxGeometry x="20" y="729.9999999999999" width="100" height="100" as="geometry" />
        </mxCell>
        <mxCell id="ky3cwqDqhnrRtxj8B09a-80" value="Q1_IS_BIGGEST" style="edgeStyle=none;rounded=0;orthogonalLoop=1;jettySize=auto;html=1;entryX=0;entryY=0.5;entryDx=0;entryDy=0;exitX=1;exitY=0.5;exitDx=0;exitDy=0;fontSize=12;" parent="1" source="ky3cwqDqhnrRtxj8B09a-77" target="ky3cwqDqhnrRtxj8B09a-83" edge="1">
          <mxGeometry relative="1" as="geometry" />
        </mxCell>
        <mxCell id="ky3cwqDqhnrRtxj8B09a-86" value="Q2_IS_BIGGEST" style="edgeStyle=none;rounded=0;orthogonalLoop=1;jettySize=auto;html=1;exitX=1;exitY=0.5;exitDx=0;exitDy=0;entryX=0;entryY=0.5;entryDx=0;entryDy=0;fontSize=12;" parent="1" source="ky3cwqDqhnrRtxj8B09a-77" target="ky3cwqDqhnrRtxj8B09a-79" edge="1">
          <mxGeometry relative="1" as="geometry" />
        </mxCell>
        <mxCell id="ky3cwqDqhnrRtxj8B09a-87" value="Q3_IS_BIGGEST" style="edgeStyle=none;rounded=0;orthogonalLoop=1;jettySize=auto;html=1;exitX=1;exitY=0.5;exitDx=0;exitDy=0;entryX=0;entryY=0.5;entryDx=0;entryDy=0;fontSize=12;" parent="1" source="ky3cwqDqhnrRtxj8B09a-77" target="ky3cwqDqhnrRtxj8B09a-84" edge="1">
          <mxGeometry relative="1" as="geometry" />
        </mxCell>
        <mxCell id="ky3cwqDqhnrRtxj8B09a-88" value="Q4_IS_BIGGEST" style="edgeStyle=none;rounded=0;orthogonalLoop=1;jettySize=auto;html=1;exitX=1;exitY=0.5;exitDx=0;exitDy=0;entryX=0;entryY=0.5;entryDx=0;entryDy=0;fontSize=12;" parent="1" source="ky3cwqDqhnrRtxj8B09a-77" target="ky3cwqDqhnrRtxj8B09a-85" edge="1">
          <mxGeometry relative="1" as="geometry" />
        </mxCell>
        <mxCell id="ky3cwqDqhnrRtxj8B09a-90" value="Q0_IS_BIGGEST" style="edgeStyle=none;rounded=0;orthogonalLoop=1;jettySize=auto;html=1;exitX=1;exitY=0.5;exitDx=0;exitDy=0;entryX=0;entryY=0.5;entryDx=0;entryDy=0;fontSize=12;" parent="1" source="ky3cwqDqhnrRtxj8B09a-77" target="ky3cwqDqhnrRtxj8B09a-89" edge="1">
          <mxGeometry relative="1" as="geometry" />
        </mxCell>
        <mxCell id="ky3cwqDqhnrRtxj8B09a-77" value="ON_Q2_Q4_AXIS" style="ellipse;whiteSpace=wrap;html=1;aspect=fixed;fontSize=12;" parent="1" vertex="1">
          <mxGeometry x="300" y="729.9999999999998" width="100" height="100" as="geometry" />
        </mxCell>
        <mxCell id="ky3cwqDqhnrRtxj8B09a-79" value="ON_Q2" style="ellipse;whiteSpace=wrap;html=1;aspect=fixed;fontSize=12;" parent="1" vertex="1">
          <mxGeometry x="580" y="729.9999999999998" width="100" height="100" as="geometry" />
        </mxCell>
        <mxCell id="ky3cwqDqhnrRtxj8B09a-83" value="ON_Q1" style="ellipse;whiteSpace=wrap;html=1;aspect=fixed;fontSize=12;" parent="1" vertex="1">
          <mxGeometry x="580" y="629.9999999999998" width="100" height="100" as="geometry" />
        </mxCell>
        <mxCell id="ky3cwqDqhnrRtxj8B09a-84" value="ON_Q3" style="ellipse;whiteSpace=wrap;html=1;aspect=fixed;fontSize=12;" parent="1" vertex="1">
          <mxGeometry x="580" y="829.9999999999998" width="100" height="100" as="geometry" />
        </mxCell>
        <mxCell id="ky3cwqDqhnrRtxj8B09a-100" value="WAKE_UP" style="edgeStyle=orthogonalEdgeStyle;rounded=0;orthogonalLoop=1;jettySize=auto;html=1;exitX=0.5;exitY=1;exitDx=0;exitDy=0;fontSize=12;" parent="1" source="ky3cwqDqhnrRtxj8B09a-85" target="ky3cwqDqhnrRtxj8B09a-57" edge="1">
          <mxGeometry relative="1" as="geometry" />
        </mxCell>
        <mxCell id="ky3cwqDqhnrRtxj8B09a-85" value="ON_Q4" style="ellipse;whiteSpace=wrap;html=1;aspect=fixed;fontSize=12;" parent="1" vertex="1">
          <mxGeometry x="580" y="930.9999999999998" width="100" height="100" as="geometry" />
        </mxCell>
        <mxCell id="ky3cwqDqhnrRtxj8B09a-92" value="WAKE_UP" style="edgeStyle=orthogonalEdgeStyle;rounded=0;orthogonalLoop=1;jettySize=auto;html=1;exitX=0.5;exitY=0;exitDx=0;exitDy=0;entryX=0.5;entryY=0;entryDx=0;entryDy=0;fontSize=12;" parent="1" source="ky3cwqDqhnrRtxj8B09a-89" target="ky3cwqDqhnrRtxj8B09a-57" edge="1">
          <mxGeometry relative="1" as="geometry" />
        </mxCell>
        <mxCell id="ky3cwqDqhnrRtxj8B09a-89" value="ON_Q0" style="ellipse;whiteSpace=wrap;html=1;aspect=fixed;fontSize=12;" parent="1" vertex="1">
          <mxGeometry x="580" y="529.9999999999998" width="100" height="100" as="geometry" />
        </mxCell>
        <mxCell id="ky3cwqDqhnrRtxj8B09a-101" value="WAKE_UP" style="edgeStyle=orthogonalEdgeStyle;rounded=0;orthogonalLoop=1;jettySize=auto;html=1;exitX=1;exitY=0.5;exitDx=0;exitDy=0;entryX=0.4;entryY=1;entryDx=0;entryDy=0;entryPerimeter=0;fontSize=12;" parent="1" source="ky3cwqDqhnrRtxj8B09a-84" target="ky3cwqDqhnrRtxj8B09a-57" edge="1">
          <mxGeometry relative="1" as="geometry">
            <Array as="points">
              <mxPoint x="700" y="880" />
              <mxPoint x="700" y="1080" />
              <mxPoint x="60" y="1080" />
            </Array>
          </mxGeometry>
        </mxCell>
        <mxCell id="ky3cwqDqhnrRtxj8B09a-102" value="WAKE_UP" style="edgeStyle=orthogonalEdgeStyle;rounded=0;orthogonalLoop=1;jettySize=auto;html=1;exitX=1;exitY=0.5;exitDx=0;exitDy=0;entryX=0.4;entryY=0;entryDx=0;entryDy=0;entryPerimeter=0;fontSize=12;" parent="1" source="ky3cwqDqhnrRtxj8B09a-83" target="ky3cwqDqhnrRtxj8B09a-57" edge="1">
          <mxGeometry relative="1" as="geometry">
            <Array as="points">
              <mxPoint x="700" y="680" />
              <mxPoint x="700" y="480" />
              <mxPoint x="60" y="480" />
            </Array>
          </mxGeometry>
        </mxCell>
        <mxCell id="ky3cwqDqhnrRtxj8B09a-103" value="WAKE_UP" style="edgeStyle=orthogonalEdgeStyle;rounded=0;orthogonalLoop=1;jettySize=auto;html=1;exitX=1;exitY=0.5;exitDx=0;exitDy=0;entryX=0.3;entryY=0;entryDx=0;entryDy=0;entryPerimeter=0;fontSize=12;" parent="1" source="ky3cwqDqhnrRtxj8B09a-79" target="ky3cwqDqhnrRtxj8B09a-57" edge="1">
          <mxGeometry relative="1" as="geometry">
            <Array as="points">
              <mxPoint x="720" y="780" />
              <mxPoint x="720" y="450" />
              <mxPoint x="50" y="450" />
            </Array>
          </mxGeometry>
        </mxCell>
      </root>
    </mxGraphModel>
  </diagram>
  <diagram id="L4zISgUBIAaE1iMOp7W1" name="Planos">
    <mxGraphModel dx="2591" dy="2089" grid="1" gridSize="10" guides="1" tooltips="1" connect="1" arrows="1" fold="1" page="1" pageScale="1" pageWidth="827" pageHeight="1169" math="0" shadow="0">
      <root>
        <mxCell id="0" />
        <mxCell id="1" parent="0" />
        <mxCell id="abRbxnpv3emvs4SVTnRn-21" value="" style="verticalLabelPosition=bottom;verticalAlign=top;html=1;shape=mxgraph.basic.half_circle;rotation=180;fillColor=#EAF1FC;strokeColor=#6c8ebf;" vertex="1" parent="1">
          <mxGeometry x="1140" y="-300" width="600" height="300" as="geometry" />
        </mxCell>
        <mxCell id="abRbxnpv3emvs4SVTnRn-1" value="" style="shape=orEllipse;perimeter=ellipsePerimeter;whiteSpace=wrap;html=1;backgroundOutline=1;fillColor=#eaf1fc;strokeColor=#6c8ebf;" vertex="1" parent="1">
          <mxGeometry x="-300" y="-300" width="600" height="600" as="geometry" />
        </mxCell>
        <mxCell id="abRbxnpv3emvs4SVTnRn-2" value="" style="ellipse;whiteSpace=wrap;html=1;aspect=fixed;fillColor=#EAF1FC;strokeColor=#6c8ebf;" vertex="1" parent="1">
          <mxGeometry x="-112.5" y="-112.5" width="225" height="225" as="geometry" />
        </mxCell>
        <mxCell id="abRbxnpv3emvs4SVTnRn-60" style="edgeStyle=none;rounded=0;orthogonalLoop=1;jettySize=auto;html=1;exitX=1;exitY=0.5;exitDx=0;exitDy=0;endArrow=none;endFill=0;fillColor=#f8cecc;strokeColor=#b85450;" edge="1" parent="1" source="abRbxnpv3emvs4SVTnRn-7" target="abRbxnpv3emvs4SVTnRn-32">
          <mxGeometry relative="1" as="geometry" />
        </mxCell>
        <mxCell id="abRbxnpv3emvs4SVTnRn-61" style="edgeStyle=none;rounded=0;orthogonalLoop=1;jettySize=auto;html=1;exitX=0.5;exitY=0;exitDx=0;exitDy=0;endArrow=none;endFill=0;fillColor=#f8cecc;strokeColor=#b85450;" edge="1" parent="1" source="abRbxnpv3emvs4SVTnRn-7" target="abRbxnpv3emvs4SVTnRn-33">
          <mxGeometry relative="1" as="geometry" />
        </mxCell>
        <mxCell id="abRbxnpv3emvs4SVTnRn-62" style="edgeStyle=none;rounded=0;orthogonalLoop=1;jettySize=auto;html=1;exitX=0.5;exitY=1;exitDx=0;exitDy=0;fillColor=#f8cecc;strokeColor=#b85450;endArrow=none;endFill=0;" edge="1" parent="1" source="abRbxnpv3emvs4SVTnRn-7" target="abRbxnpv3emvs4SVTnRn-35">
          <mxGeometry relative="1" as="geometry" />
        </mxCell>
        <mxCell id="abRbxnpv3emvs4SVTnRn-7" value="" style="shape=ext;double=1;whiteSpace=wrap;html=1;aspect=fixed;fillColor=#1ba1e2;fontColor=#ffffff;strokeColor=#006EAF;rotation=315;direction=east;" vertex="1" parent="1">
          <mxGeometry x="-80" y="-80" width="160" height="160" as="geometry" />
        </mxCell>
        <mxCell id="abRbxnpv3emvs4SVTnRn-8" value="x" style="shape=flexArrow;endArrow=classic;html=1;rounded=0;entryX=1;entryY=0.5;entryDx=0;entryDy=0;fillColor=#e51400;strokeColor=#B20000;" edge="1" parent="1" target="abRbxnpv3emvs4SVTnRn-7">
          <mxGeometry width="50" height="50" relative="1" as="geometry">
            <mxPoint as="sourcePoint" />
            <mxPoint x="640" y="580" as="targetPoint" />
          </mxGeometry>
        </mxCell>
        <mxCell id="abRbxnpv3emvs4SVTnRn-9" value="y" style="shape=flexArrow;endArrow=classic;html=1;rounded=0;startSize=0;entryX=0;entryY=0.5;entryDx=0;entryDy=0;fillColor=#008a00;strokeColor=#005700;" edge="1" parent="1" target="abRbxnpv3emvs4SVTnRn-7">
          <mxGeometry width="50" height="50" relative="1" as="geometry">
            <mxPoint as="sourcePoint" />
            <mxPoint x="70" y="-10" as="targetPoint" />
          </mxGeometry>
        </mxCell>
        <mxCell id="abRbxnpv3emvs4SVTnRn-19" value="ON_Q1_Q3_AXIS" style="text;html=1;align=center;verticalAlign=middle;whiteSpace=wrap;rounded=0;fontSize=20;fontStyle=1" vertex="1" parent="1">
          <mxGeometry x="-112.5" y="-380" width="265" height="58" as="geometry" />
        </mxCell>
        <mxCell id="abRbxnpv3emvs4SVTnRn-20" value="ON_Q2_Q4_AXIS" style="text;html=1;align=center;verticalAlign=middle;whiteSpace=wrap;rounded=0;fontSize=20;fontStyle=1" vertex="1" parent="1">
          <mxGeometry x="584" y="-380" width="265" height="58" as="geometry" />
        </mxCell>
        <mxCell id="abRbxnpv3emvs4SVTnRn-22" value="" style="endArrow=none;html=1;rounded=0;exitX=0.5;exitY=0;exitDx=0;exitDy=0;exitPerimeter=0;entryX=0.5;entryY=1;entryDx=0;entryDy=0;entryPerimeter=0;fillColor=#dae8fc;strokeColor=#6c8ebf;" edge="1" parent="1" source="abRbxnpv3emvs4SVTnRn-21" target="abRbxnpv3emvs4SVTnRn-21">
          <mxGeometry width="50" height="50" relative="1" as="geometry">
            <mxPoint x="1350" y="-90" as="sourcePoint" />
            <mxPoint x="1400" y="-140" as="targetPoint" />
          </mxGeometry>
        </mxCell>
        <mxCell id="abRbxnpv3emvs4SVTnRn-23" value="ON_Q3" style="text;html=1;align=center;verticalAlign=middle;whiteSpace=wrap;rounded=0;fontSize=20;fontStyle=1" vertex="1" parent="1">
          <mxGeometry x="1307.5" y="-380" width="265" height="58" as="geometry" />
        </mxCell>
        <mxCell id="abRbxnpv3emvs4SVTnRn-24" value="Q3" style="text;html=1;align=center;verticalAlign=middle;resizable=0;points=[];autosize=1;strokeColor=none;fillColor=none;fontSize=22;" vertex="1" parent="1">
          <mxGeometry x="1300" y="-171.25" width="50" height="40" as="geometry" />
        </mxCell>
        <mxCell id="abRbxnpv3emvs4SVTnRn-25" value="Q1" style="text;html=1;align=center;verticalAlign=middle;resizable=0;points=[];autosize=1;strokeColor=none;fillColor=none;fontSize=22;" vertex="1" parent="1">
          <mxGeometry x="1540" y="-170" width="50" height="40" as="geometry" />
        </mxCell>
        <mxCell id="mCGAD4PEATvQ_UTpFTDE-2" style="edgeStyle=none;rounded=0;orthogonalLoop=1;jettySize=auto;html=1;endArrow=none;endFill=0;fillColor=#d5e8d4;strokeColor=#82b366;exitX=0.5;exitY=0;exitDx=0;exitDy=0;exitPerimeter=0;" edge="1" parent="1" source="abRbxnpv3emvs4SVTnRn-21" target="mCGAD4PEATvQ_UTpFTDE-1">
          <mxGeometry relative="1" as="geometry" />
        </mxCell>
        <mxCell id="abRbxnpv3emvs4SVTnRn-32" value="0°" style="text;html=1;align=center;verticalAlign=middle;resizable=0;points=[];autosize=1;strokeColor=none;fillColor=none;fontSize=22;rotation=315;" vertex="1" parent="1">
          <mxGeometry x="234" y="-274" width="40" height="40" as="geometry" />
        </mxCell>
        <mxCell id="abRbxnpv3emvs4SVTnRn-33" value="90°" style="text;html=1;align=center;verticalAlign=middle;resizable=0;points=[];autosize=1;strokeColor=none;fillColor=none;fontSize=22;rotation=315;" vertex="1" parent="1">
          <mxGeometry x="-285" y="-274" width="60" height="40" as="geometry" />
        </mxCell>
        <mxCell id="abRbxnpv3emvs4SVTnRn-34" value="180°" style="text;html=1;align=center;verticalAlign=middle;resizable=0;points=[];autosize=1;strokeColor=none;fillColor=none;fontSize=22;rotation=315;" vertex="1" parent="1">
          <mxGeometry x="-300" y="245" width="70" height="40" as="geometry" />
        </mxCell>
        <mxCell id="abRbxnpv3emvs4SVTnRn-35" value="270°" style="text;html=1;align=center;verticalAlign=middle;resizable=0;points=[];autosize=1;strokeColor=none;fillColor=none;fontSize=22;rotation=315;" vertex="1" parent="1">
          <mxGeometry x="219" y="234" width="70" height="40" as="geometry" />
        </mxCell>
        <mxCell id="abRbxnpv3emvs4SVTnRn-59" style="edgeStyle=none;rounded=0;orthogonalLoop=1;jettySize=auto;html=1;exitX=0;exitY=0.5;exitDx=0;exitDy=0;endArrow=none;endFill=0;fillColor=#f8cecc;strokeColor=#b85450;" edge="1" parent="1" source="abRbxnpv3emvs4SVTnRn-7" target="abRbxnpv3emvs4SVTnRn-34">
          <mxGeometry relative="1" as="geometry" />
        </mxCell>
        <mxCell id="abRbxnpv3emvs4SVTnRn-5" value="Q3" style="text;html=1;align=center;verticalAlign=middle;resizable=0;points=[];autosize=1;fontSize=22;fillColor=#EAF1FC;" vertex="1" parent="1">
          <mxGeometry x="-162.5" y="112.5" width="50" height="40" as="geometry" />
        </mxCell>
        <mxCell id="abRbxnpv3emvs4SVTnRn-3" value="Q1" style="text;html=1;align=center;verticalAlign=middle;resizable=0;points=[];autosize=1;strokeColor=none;fillColor=#EAF1FC;fontSize=22;" vertex="1" parent="1">
          <mxGeometry x="112.5" y="-152.5" width="50" height="40" as="geometry" />
        </mxCell>
        <mxCell id="abRbxnpv3emvs4SVTnRn-6" value="Q2" style="text;html=1;align=center;verticalAlign=middle;resizable=0;points=[];autosize=1;strokeColor=none;fillColor=#EAF1FC;fontSize=22;" vertex="1" parent="1">
          <mxGeometry x="-181.25" y="-171.25" width="50" height="40" as="geometry" />
        </mxCell>
        <mxCell id="abRbxnpv3emvs4SVTnRn-4" value="Q4" style="text;html=1;align=center;verticalAlign=middle;resizable=0;points=[];autosize=1;strokeColor=none;fillColor=#EAF1FC;fontSize=22;" vertex="1" parent="1">
          <mxGeometry x="112.5" y="112.5" width="50" height="40" as="geometry" />
        </mxCell>
        <mxCell id="abRbxnpv3emvs4SVTnRn-64" value="" style="shape=orEllipse;perimeter=ellipsePerimeter;whiteSpace=wrap;html=1;backgroundOutline=1;fillColor=#eaf1fc;strokeColor=#6c8ebf;" vertex="1" parent="1">
          <mxGeometry x="416.5" y="-300" width="600" height="600" as="geometry" />
        </mxCell>
        <mxCell id="abRbxnpv3emvs4SVTnRn-65" value="" style="ellipse;whiteSpace=wrap;html=1;aspect=fixed;fillColor=#EAF1FC;strokeColor=#6c8ebf;" vertex="1" parent="1">
          <mxGeometry x="604" y="-112.5" width="225" height="225" as="geometry" />
        </mxCell>
        <mxCell id="abRbxnpv3emvs4SVTnRn-66" style="edgeStyle=none;rounded=0;orthogonalLoop=1;jettySize=auto;html=1;exitX=0.5;exitY=1;exitDx=0;exitDy=0;endArrow=none;endFill=0;fillColor=#f8cecc;strokeColor=#b85450;" edge="1" parent="1" source="abRbxnpv3emvs4SVTnRn-69" target="abRbxnpv3emvs4SVTnRn-72">
          <mxGeometry relative="1" as="geometry" />
        </mxCell>
        <mxCell id="abRbxnpv3emvs4SVTnRn-67" style="edgeStyle=none;rounded=0;orthogonalLoop=1;jettySize=auto;html=1;endArrow=none;endFill=0;fillColor=#f8cecc;strokeColor=#b85450;" edge="1" parent="1" source="abRbxnpv3emvs4SVTnRn-69" target="abRbxnpv3emvs4SVTnRn-73">
          <mxGeometry relative="1" as="geometry" />
        </mxCell>
        <mxCell id="abRbxnpv3emvs4SVTnRn-68" style="edgeStyle=none;rounded=0;orthogonalLoop=1;jettySize=auto;html=1;exitX=0;exitY=0.5;exitDx=0;exitDy=0;fillColor=#f8cecc;strokeColor=#b85450;endArrow=none;endFill=0;" edge="1" parent="1" source="abRbxnpv3emvs4SVTnRn-69" target="abRbxnpv3emvs4SVTnRn-75">
          <mxGeometry relative="1" as="geometry" />
        </mxCell>
        <mxCell id="abRbxnpv3emvs4SVTnRn-69" value="" style="shape=ext;double=1;whiteSpace=wrap;html=1;aspect=fixed;fillColor=#1ba1e2;fontColor=#ffffff;strokeColor=#006EAF;rotation=315;direction=north;" vertex="1" parent="1">
          <mxGeometry x="636.5" y="-80" width="160" height="160" as="geometry" />
        </mxCell>
        <mxCell id="abRbxnpv3emvs4SVTnRn-70" value="x" style="shape=flexArrow;endArrow=classic;html=1;rounded=0;entryX=1;entryY=0.5;entryDx=0;entryDy=0;fillColor=#e51400;strokeColor=#B20000;" edge="1" parent="1" target="abRbxnpv3emvs4SVTnRn-69">
          <mxGeometry width="50" height="50" relative="1" as="geometry">
            <mxPoint x="716.5" as="sourcePoint" />
            <mxPoint x="1356.5" y="580" as="targetPoint" />
          </mxGeometry>
        </mxCell>
        <mxCell id="abRbxnpv3emvs4SVTnRn-71" value="y" style="shape=flexArrow;endArrow=classic;html=1;rounded=0;startSize=0;entryX=0;entryY=0.5;entryDx=0;entryDy=0;fillColor=#008a00;strokeColor=#005700;" edge="1" parent="1" target="abRbxnpv3emvs4SVTnRn-69">
          <mxGeometry width="50" height="50" relative="1" as="geometry">
            <mxPoint x="716.5" as="sourcePoint" />
            <mxPoint x="786.5" y="-10" as="targetPoint" />
          </mxGeometry>
        </mxCell>
        <mxCell id="abRbxnpv3emvs4SVTnRn-72" value="0°" style="text;html=1;align=center;verticalAlign=middle;resizable=0;points=[];autosize=1;strokeColor=none;fillColor=none;fontSize=22;rotation=315;" vertex="1" parent="1">
          <mxGeometry x="950.5" y="-274" width="40" height="40" as="geometry" />
        </mxCell>
        <mxCell id="abRbxnpv3emvs4SVTnRn-73" value="90°" style="text;html=1;align=center;verticalAlign=middle;resizable=0;points=[];autosize=1;strokeColor=none;fillColor=none;fontSize=22;rotation=315;" vertex="1" parent="1">
          <mxGeometry x="431.5" y="-274" width="60" height="40" as="geometry" />
        </mxCell>
        <mxCell id="abRbxnpv3emvs4SVTnRn-74" value="180°" style="text;html=1;align=center;verticalAlign=middle;resizable=0;points=[];autosize=1;strokeColor=none;fillColor=none;fontSize=22;rotation=315;" vertex="1" parent="1">
          <mxGeometry x="416.5" y="245" width="70" height="40" as="geometry" />
        </mxCell>
        <mxCell id="abRbxnpv3emvs4SVTnRn-75" value="270°" style="text;html=1;align=center;verticalAlign=middle;resizable=0;points=[];autosize=1;strokeColor=none;fillColor=none;fontSize=22;rotation=315;" vertex="1" parent="1">
          <mxGeometry x="935.5" y="234" width="70" height="40" as="geometry" />
        </mxCell>
        <mxCell id="abRbxnpv3emvs4SVTnRn-76" style="edgeStyle=none;rounded=0;orthogonalLoop=1;jettySize=auto;html=1;exitX=0.5;exitY=0;exitDx=0;exitDy=0;endArrow=none;endFill=0;fillColor=#f8cecc;strokeColor=#b85450;" edge="1" parent="1" source="abRbxnpv3emvs4SVTnRn-69" target="abRbxnpv3emvs4SVTnRn-74">
          <mxGeometry relative="1" as="geometry" />
        </mxCell>
        <mxCell id="abRbxnpv3emvs4SVTnRn-77" value="Q3" style="text;html=1;align=center;verticalAlign=middle;resizable=0;points=[];autosize=1;fontSize=22;fillColor=#EAF1FC;" vertex="1" parent="1">
          <mxGeometry x="554" y="112.5" width="50" height="40" as="geometry" />
        </mxCell>
        <mxCell id="abRbxnpv3emvs4SVTnRn-78" value="Q1" style="text;html=1;align=center;verticalAlign=middle;resizable=0;points=[];autosize=1;strokeColor=none;fillColor=#EAF1FC;fontSize=22;" vertex="1" parent="1">
          <mxGeometry x="829" y="-152.5" width="50" height="40" as="geometry" />
        </mxCell>
        <mxCell id="abRbxnpv3emvs4SVTnRn-79" value="Q2" style="text;html=1;align=center;verticalAlign=middle;resizable=0;points=[];autosize=1;strokeColor=none;fillColor=#EAF1FC;fontSize=22;" vertex="1" parent="1">
          <mxGeometry x="535.25" y="-171.25" width="50" height="40" as="geometry" />
        </mxCell>
        <mxCell id="abRbxnpv3emvs4SVTnRn-80" value="Q4" style="text;html=1;align=center;verticalAlign=middle;resizable=0;points=[];autosize=1;strokeColor=none;fillColor=#EAF1FC;fontSize=22;" vertex="1" parent="1">
          <mxGeometry x="829" y="112.5" width="50" height="40" as="geometry" />
        </mxCell>
        <mxCell id="mCGAD4PEATvQ_UTpFTDE-1" value="135°" style="text;html=1;align=center;verticalAlign=middle;resizable=0;points=[];autosize=1;strokeColor=none;fillColor=none;fontSize=22;rotation=315;" vertex="1" parent="1">
          <mxGeometry x="1140" y="-300" width="70" height="40" as="geometry" />
        </mxCell>
        <mxCell id="mCGAD4PEATvQ_UTpFTDE-4" value="45°" style="text;html=1;align=center;verticalAlign=middle;resizable=0;points=[];autosize=1;strokeColor=none;fillColor=none;fontSize=22;rotation=45;" vertex="1" parent="1">
          <mxGeometry x="1690" y="-300" width="60" height="40" as="geometry" />
        </mxCell>
        <mxCell id="abRbxnpv3emvs4SVTnRn-29" value="z" style="shape=flexArrow;endArrow=classic;html=1;rounded=0;startSize=0;entryX=1;entryY=0;entryDx=0;entryDy=0;fillColor=#e3c800;strokeColor=#B09500;exitX=0.5;exitY=0;exitDx=0;exitDy=0;" edge="1" parent="1">
          <mxGeometry width="50" height="50" relative="1" as="geometry">
            <mxPoint x="1417" y="-24" as="sourcePoint" />
            <mxPoint x="1360" y="-80" as="targetPoint" />
          </mxGeometry>
        </mxCell>
        <mxCell id="mCGAD4PEATvQ_UTpFTDE-6" style="edgeStyle=none;rounded=0;orthogonalLoop=1;jettySize=auto;html=1;exitX=0.5;exitY=0;exitDx=0;exitDy=0;exitPerimeter=0;endArrow=none;endFill=0;fillColor=#d5e8d4;strokeColor=#82b366;" edge="1" parent="1" source="abRbxnpv3emvs4SVTnRn-21" target="mCGAD4PEATvQ_UTpFTDE-4">
          <mxGeometry relative="1" as="geometry" />
        </mxCell>
        <mxCell id="abRbxnpv3emvs4SVTnRn-26" value="" style="rounded=0;whiteSpace=wrap;html=1;rotation=-45;fillColor=#1ba1e2;fontColor=#ffffff;strokeColor=#006EAF;" vertex="1" parent="1">
          <mxGeometry x="1360" y="-37.93" width="160" height="75.86" as="geometry" />
        </mxCell>
        <mxCell id="abRbxnpv3emvs4SVTnRn-28" value="y" style="shape=flexArrow;endArrow=classic;html=1;rounded=0;startSize=0;entryX=1;entryY=0;entryDx=0;entryDy=0;fillColor=#008a00;strokeColor=#005700;exitX=0.5;exitY=0;exitDx=0;exitDy=0;" edge="1" parent="1" source="abRbxnpv3emvs4SVTnRn-26" target="abRbxnpv3emvs4SVTnRn-26">
          <mxGeometry width="50" height="50" relative="1" as="geometry">
            <mxPoint x="770" y="10" as="sourcePoint" />
            <mxPoint x="713" y="-47" as="targetPoint" />
          </mxGeometry>
        </mxCell>
        <mxCell id="abRbxnpv3emvs4SVTnRn-27" value="x" style="shape=flexArrow;endArrow=classic;html=1;rounded=0;entryX=0;entryY=0;entryDx=0;entryDy=0;fillColor=#e51400;strokeColor=#B20000;exitX=0.5;exitY=0;exitDx=0;exitDy=0;" edge="1" parent="1" source="abRbxnpv3emvs4SVTnRn-26" target="abRbxnpv3emvs4SVTnRn-26">
          <mxGeometry width="50" height="50" relative="1" as="geometry">
            <mxPoint x="1293" y="30" as="sourcePoint" />
            <mxPoint x="1350" y="87" as="targetPoint" />
          </mxGeometry>
        </mxCell>
      </root>
    </mxGraphModel>
  </diagram>
</mxfile>
